<?xml version="1.0" encoding="UTF-8"?>
<svg id="_레이어_1" data-name="레이어 1" xmlns="http://www.w3.org/2000/svg" viewBox="0 0 898 897">
  <defs>
    <style>
      .cls-1 {
        fill: #fff;
      }
    </style>
  </defs>
  <rect class="cls-1" y="387" width="510" height="510"/>
  <path d="m728.44,40c34.61,0,67.14,13.48,91.61,37.95,24.47,24.47,37.95,57.01,37.95,91.61v435.88c0,34.61-13.48,67.14-37.95,91.61-24.47,24.47-57.01,37.95-91.61,37.95h-435.88c-34.61,0-67.14-13.48-91.61-37.95-24.47-24.47-37.95-57.01-37.95-91.61V169.56c0-34.61,13.48-67.14,37.95-91.61,24.47-24.47,57.01-37.95,91.61-37.95h435.88m0-40h-435.88C198.91,0,123,75.91,123,169.56v435.88c0,93.65,75.91,169.56,169.56,169.56h435.88c93.65,0,169.56-75.91,169.56-169.56V169.56C898,75.91,822.09,0,728.44,0h0Z"/>
  <path d="m260.84,17.16c-7.22,43.31,3.71,89.89,32.41,122.59,12.01,14.12,27.24,24.88,42.99,34.51,16.22,10.07,32.75,19.16,50.06,27.44,36.23,17.45,74.47,30.74,113.23,41.77,97.25,27.75,202.28,43.71,289.43,98.07,15.99,9.84,31.06,20.6,45.27,32.23,14.21,11.73,28.11,23.64,38.05,39.45,35.74,55.65,25.27,134.13,5.25,198.18-3.87,12.52-8.77,25.71-13.79,38.01-1.11,2.8-2.51,5.79-3.72,8.57,0,0-72.02,72.02-72.02,72.02,0,0-2.21,1-2.21,1l-2.13.92c-54.62,23.6-127.69,40.73-183.82,31.24-32.28-5.53-56.59-16.95-77.93-38.32-19.05-20.2-35.62-42.02-50.36-65.89-70.7-113.95-76.07-254.26-127.84-375.91-9.29-22.27-20.04-43.96-32.15-64.73-7.2-11.99-14.41-24.11-22.96-35.17-30.45-39.77-80.28-58.41-130.27-53.8-3.63.34-7.54.76-11.17,1.48,0,0,113.68-113.68,113.68-113.68h0Z"/>
</svg>